<svg width="134" height="102" viewBox="0 0 134 102" fill="none" xmlns="http://www.w3.org/2000/svg">
<mask id="mask0" mask-type="alpha" maskUnits="userSpaceOnUse" x="0" y="1" width="41" height="65">
<path fill-rule="evenodd" clip-rule="evenodd" d="M0.000488281 1H40.8282V65.8039H0.000488281V1Z" fill="white"/>
</mask>
<g mask="url(#mask0)">
<path fill-rule="evenodd" clip-rule="evenodd" d="M24.2425 46.3899C22.8165 44.9639 22.8165 42.6439 24.2425 41.2179L25.6575 39.8039L16.8285 30.9749L12.8285 34.9749L5.65749 27.8039L26.8525 6.6079L33.8585 13.3749L21.3835 26.4219C20.6195 27.2199 20.6475 28.4859 21.4465 29.2489C22.2455 30.0129 23.5115 29.9839 24.2735 29.1859L39.5005 13.2629L26.8045 0.9999L0.000488281 27.8039L12.8285 40.6329L16.8285 36.6329L20.1855 39.9899C19.5245 41.1379 19.1725 42.4439 19.1725 43.8039C19.1725 45.8489 19.9685 47.7719 21.4145 49.2179L37.4145 65.2179C37.8055 65.6089 38.3165 65.8039 38.8285 65.8039C39.3405 65.8039 39.8525 65.6089 40.2425 65.2179C41.0235 64.4369 41.0235 63.1709 40.2425 62.3899L24.2425 46.3899Z" fill="white"/>
</g>
<mask id="mask1" mask-type="alpha" maskUnits="userSpaceOnUse" x="92" y="1" width="42" height="65">
<path fill-rule="evenodd" clip-rule="evenodd" d="M92.8283 1H133.657V65.8037H92.8283V1Z" fill="white"/>
</mask>
<g mask="url(#mask1)">
<path fill-rule="evenodd" clip-rule="evenodd" d="M106.853 0.9997L94.1568 13.2627L109.383 29.1867C110.146 29.9837 111.412 30.0137 112.211 29.2497C113.009 28.4857 113.038 27.2197 112.274 26.4217L99.7978 13.3747L106.804 6.6077L128 27.8037L120.829 34.9757L116.829 30.9757L108 39.8037L109.415 41.2177C110.84 42.6437 110.84 44.9637 109.415 46.3897L93.4148 62.3897C92.6328 63.1707 92.6328 64.4377 93.4148 65.2177C93.8048 65.6087 94.3168 65.8037 94.8288 65.8037C95.3398 65.8037 95.8528 65.6087 96.2428 65.2177L112.243 49.2177C113.689 47.7717 114.486 45.8497 114.486 43.8037C114.486 42.4437 114.133 41.1377 113.472 39.9897L116.829 36.6327L120.829 40.6327L133.658 27.8037L106.853 0.9997Z" fill="white"/>
</g>
<path fill-rule="evenodd" clip-rule="evenodd" d="M82.5862 24.8747C84.9262 22.5357 88.7322 22.5357 91.0712 24.8747L92.8282 26.6327L96.2422 23.2177C97.0242 22.4367 97.0242 21.1707 96.2422 20.3897C95.4622 19.6087 94.1942 19.6087 93.4142 20.3897L92.7472 21.0567C88.8382 18.1827 83.2922 18.5107 79.7582 22.0467L79.6092 22.1947C78.5142 20.7457 76.7812 19.8037 74.8282 19.8037C74.1282 19.8037 73.4542 19.9247 72.8282 20.1467V17.8037C72.8282 14.4957 70.1372 11.8037 66.8282 11.8037C63.5202 11.8037 60.8282 14.4957 60.8282 17.8037V20.1467C58.6812 19.3837 55.8412 19.8007 54.1872 22.3337L53.8992 22.0467C50.3652 18.5107 44.8182 18.1827 40.9092 21.0567L40.2422 20.3897C39.4622 19.6087 38.1942 19.6087 37.4142 20.3897C36.6332 21.1707 36.6332 22.4367 37.4142 23.2177L40.8282 26.6327L42.5862 24.8747C44.9262 22.5357 48.7322 22.5357 51.0712 24.8747L52.8752 26.6787C52.8492 27.0397 52.8282 27.4097 52.8282 27.8037V43.8087C51.1562 42.5507 49.0772 41.8037 46.8282 41.8037H44.8282V71.8037C44.8282 76.6327 48.2702 80.6737 52.8282 81.6037V83.8037C52.8282 84.9087 53.7242 85.8037 54.8282 85.8037C55.9332 85.8037 56.8282 84.9087 56.8282 83.8037V77.8037H54.8282C51.5202 77.8037 48.8282 75.1127 48.8282 71.8037V46.1467C51.1562 46.9717 52.8282 49.1967 52.8282 51.8037V61.8037V63.8037C52.8282 64.9087 53.7242 65.8037 54.8282 65.8037C55.9332 65.8037 56.8282 64.9087 56.8282 63.8037V61.8037V27.8037C56.8282 26.6017 57.0242 23.8037 58.8282 23.8037C59.9322 23.8037 60.8282 24.7007 60.8282 25.8037V47.8037V49.8037V51.8037C60.8282 52.9087 61.7242 53.8037 62.8282 53.8037C63.9332 53.8037 64.8282 52.9087 64.8282 51.8037V49.8037V47.8037V17.8037C64.8282 16.7007 65.7262 15.8037 66.8282 15.8037C67.9322 15.8037 68.8282 16.7007 68.8282 17.8037V47.8037V49.8037V51.8037C68.8282 52.9087 69.7242 53.8037 70.8282 53.8037C71.9332 53.8037 72.8282 52.9087 72.8282 51.8037V49.8037V47.8037V25.8037C72.8282 24.7007 73.7262 23.8037 74.8282 23.8037C75.9322 23.8037 76.8282 24.7007 76.8282 25.8037V47.8037V49.8037V51.8037C76.8282 52.9087 77.7242 53.8037 78.8282 53.8037C79.9332 53.8037 80.8282 52.9087 80.8282 51.8037V49.8037V47.8037V33.8037C80.8282 32.7007 81.7262 31.8037 82.8282 31.8037C83.9322 31.8037 84.8282 32.7007 84.8282 33.8037V71.8037C84.8282 75.1127 82.1372 77.8037 78.8282 77.8037H76.8282V93.8037H80.8282V97.8037H52.8282V93.8037H70.8282C71.9332 93.8037 72.8282 92.9087 72.8282 91.8037C72.8282 90.6997 71.9332 89.8037 70.8282 89.8037H48.8282V101.804H84.8282V89.8037H80.8282V81.6037C85.3872 80.6737 88.8282 76.6327 88.8282 71.8037V33.8037C88.8282 30.4957 86.1372 27.8037 82.8282 27.8037C82.1282 27.8037 81.4542 27.9247 80.8282 28.1467V26.6317L82.5862 24.8747Z" fill="white"/>
</svg>
