<svg width="132" height="100" viewBox="0 0 132 100" fill="none" xmlns="http://www.w3.org/2000/svg">
<path fill-rule="evenodd" clip-rule="evenodd" d="M109.997 66V58C109.997 56.897 110.893 56 111.997 56H113.997C115.101 56 115.997 55.104 115.997 54C115.997 52.896 115.101 52 113.997 52H111.997C108.688 52 105.997 54.691 105.997 58V66C105.997 69.309 108.688 72 111.997 72H119.997V90C119.997 93.309 117.306 96 113.997 96H10.0003C8.39631 96 6.89031 95.375 5.75731 94.242C4.62331 93.108 3.99931 91.601 4.00031 89.998L4.01731 26C4.01731 22.691 6.70831 20 10.0173 20H35.9973V18C35.9973 10.28 42.2773 4 49.9973 4C57.7173 4 63.9973 10.28 63.9973 18C63.9973 19.104 64.8933 20 65.9973 20C67.1013 20 67.9973 19.104 67.9973 18C67.9973 8.075 59.9223 0 49.9973 0C40.7483 0 33.1053 7.013 32.1073 16H10.0173C4.50331 16 0.0173059 20.486 0.0173059 26L0.000305896 89.997C-0.000694104 92.668 1.03931 95.18 2.92831 97.07C4.81631 98.959 7.32831 100 10.0003 100H113.997C119.511 100 123.997 95.514 123.997 90V68H111.997C110.893 68 109.997 67.103 109.997 66Z" fill="white"/>
<mask id="mask0" mask-type="alpha" maskUnits="userSpaceOnUse" x="7" y="24" width="125" height="48">
<path fill-rule="evenodd" clip-rule="evenodd" d="M7.99731 24H131.997V71.995H7.99731V24Z" fill="white"/>
</mask>
<g mask="url(#mask0)">
<path fill-rule="evenodd" clip-rule="evenodd" d="M123.997 52V34C123.997 28.486 119.511 24 113.997 24H9.99731C8.89331 24 7.99731 24.896 7.99731 26C7.99731 27.104 8.89331 28 9.99731 28H113.997C117.306 28 119.997 30.691 119.997 34V56H127.997V69.995C127.997 71.099 128.893 71.995 129.997 71.995C131.101 71.995 131.997 71.099 131.997 69.995V52H123.997Z" fill="white"/>
</g>
<path fill-rule="evenodd" clip-rule="evenodd" d="M114.002 62C114.002 63.104 114.902 64 116.007 64C117.111 64 118.007 63.104 118.007 62C118.007 60.896 117.111 60 116.007 60H115.997C114.893 60 114.002 60.896 114.002 62Z" fill="white"/>
<path fill-rule="evenodd" clip-rule="evenodd" d="M51.9973 44H61.9983C67.5123 44 71.9973 48.486 71.9983 54C71.9983 59.514 67.5123 64 61.9983 64H51.9973V44ZM41.9973 74C40.8933 74 39.9973 74.896 39.9973 76C39.9973 77.104 40.8933 78 41.9973 78H47.9973V90C47.9973 91.104 48.8933 92 49.9973 92C51.1013 92 51.9973 91.104 51.9973 90V78H65.9973C67.1013 78 67.9973 77.104 67.9973 76C67.9973 74.896 67.1013 74 65.9973 74H51.9973V68H61.9983C69.7183 68 75.9983 61.719 75.9983 53.999C75.9973 46.28 69.7173 40 61.9983 40H47.9973V64H41.9973C40.8933 64 39.9973 64.896 39.9973 66C39.9973 67.104 40.8933 68 41.9973 68H47.9973V74H41.9973Z" fill="white"/>
<path fill-rule="evenodd" clip-rule="evenodd" d="M65.9973 4C73.7173 4 79.9973 10.28 79.9973 18V20H113.997C115.101 20 115.997 19.104 115.997 18C115.997 16.896 115.101 16 113.997 16H83.8873C82.8893 7.013 75.2463 0 65.9973 0C64.8933 0 63.9973 0.896 63.9973 2C63.9973 3.104 64.8933 4 65.9973 4Z" fill="white"/>
</svg>
