<svg width="132" height="102" viewBox="0 0 132 102" fill="none" xmlns="http://www.w3.org/2000/svg">
<mask id="mask0" mask-type="alpha" maskUnits="userSpaceOnUse" x="47" y="1" width="85" height="101">
<path fill-rule="evenodd" clip-rule="evenodd" d="M47.9998 1H132V101.001H47.9998V1Z" fill="white"/>
</mask>
<g mask="url(#mask0)">
<path fill-rule="evenodd" clip-rule="evenodd" d="M94.1974 17.2065C93.1014 17.0935 92.1194 17.9005 92.0094 18.9985C91.9004 20.0985 92.7034 21.0775 93.8014 21.1865C113.298 23.1235 128 39.3785 128 58.9995C128 69.4955 123.595 79.6245 115.918 86.7895C108.134 94.0535 97.9664 97.6465 87.2874 96.9055C68.2714 95.5865 53.1284 80.2325 52.0614 61.1895C50.9184 40.7725 65.9124 23.2015 86.1974 21.1865L88.0004 21.0075V10.9995H76.0004C76.0004 7.6905 78.6914 4.9995 82.0004 4.9995H98.0004C101.308 4.9995 104 7.6905 104 10.9995H94.0004C92.8954 10.9995 92.0004 11.8945 92.0004 12.9995C92.0004 14.1035 92.8954 14.9995 94.0004 14.9995H108V10.9995C108 5.4855 103.513 0.9995 98.0004 0.9995H82.0004C76.4854 0.9995 72.0004 5.4855 72.0004 10.9995V14.9995H84.0004V17.4245C62.4974 20.4835 46.8384 39.4595 48.0674 61.4135C49.2464 82.4645 65.9884 99.4385 87.0104 100.896C88.0254 100.966 89.0334 101 90.0384 101C100.718 101 110.782 97.0515 118.646 89.7135C127.133 81.7955 132 70.6005 132 58.9995C132 37.3135 115.748 19.3465 94.1974 17.2065Z" fill="white"/>
</g>
<path fill-rule="evenodd" clip-rule="evenodd" d="M112 58.9994C112 57.8954 111.104 56.9994 110 56.9994H92.0001V26.9994C92.0001 25.8954 91.1041 24.9994 90.0001 24.9994C88.8961 24.9994 88.0001 25.8954 88.0001 26.9994V60.9994H110C111.104 60.9994 112 60.1034 112 58.9994Z" fill="white"/>
<path fill-rule="evenodd" clip-rule="evenodd" d="M62.0001 56.9994H58.0001C56.8961 56.9994 56.0001 57.8954 56.0001 58.9994C56.0001 60.1034 56.8961 60.9994 58.0001 60.9994H62.0001C63.1041 60.9994 64.0001 60.1034 64.0001 58.9994C64.0001 57.8954 63.1041 56.9994 62.0001 56.9994Z" fill="white"/>
<path fill-rule="evenodd" clip-rule="evenodd" d="M88.0001 86.9994V90.9994C88.0001 92.1034 88.8961 92.9994 90.0001 92.9994C91.1041 92.9994 92.0001 92.1034 92.0001 90.9994V86.9994C92.0001 85.8954 91.1041 84.9994 90.0001 84.9994C88.8961 84.9994 88.0001 85.8954 88.0001 86.9994Z" fill="white"/>
<path fill-rule="evenodd" clip-rule="evenodd" d="M122 60.9994C123.104 60.9994 124 60.1034 124 58.9994C124 57.8954 123.104 56.9994 122 56.9994H118C116.896 56.9994 116 57.8954 116 58.9994C116 60.1034 116.896 60.9994 118 60.9994H122Z" fill="white"/>
<path fill-rule="evenodd" clip-rule="evenodd" d="M44.0001 58.9994C44.0001 57.8954 43.1041 56.9994 42.0001 56.9994H2.00012C0.896122 56.9994 0.00012207 57.8954 0.00012207 58.9994C0.00012207 60.1034 0.896122 60.9994 2.00012 60.9994H42.0001C43.1041 60.9994 44.0001 60.1034 44.0001 58.9994Z" fill="white"/>
<path fill-rule="evenodd" clip-rule="evenodd" d="M14.0001 44.9994H44.0001C45.1041 44.9994 46.0001 44.1034 46.0001 42.9994C46.0001 41.8954 45.1041 40.9994 44.0001 40.9994H14.0001C12.8961 40.9994 12.0001 41.8954 12.0001 42.9994C12.0001 44.1034 12.8961 44.9994 14.0001 44.9994Z" fill="white"/>
<path fill-rule="evenodd" clip-rule="evenodd" d="M34.0001 28.9994H54.0001C55.1041 28.9994 56.0001 28.1034 56.0001 26.9994C56.0001 25.8954 55.1041 24.9994 54.0001 24.9994H34.0001C32.8961 24.9994 32.0001 25.8954 32.0001 26.9994C32.0001 28.1034 32.8961 28.9994 34.0001 28.9994Z" fill="white"/>
<path fill-rule="evenodd" clip-rule="evenodd" d="M46.0001 74.9994C46.0001 73.8954 45.1041 72.9994 44.0001 72.9994H14.0001C12.8961 72.9994 12.0001 73.8954 12.0001 74.9994C12.0001 76.1034 12.8961 76.9994 14.0001 76.9994H44.0001C45.1041 76.9994 46.0001 76.1034 46.0001 74.9994Z" fill="white"/>
<path fill-rule="evenodd" clip-rule="evenodd" d="M56.0001 88.9994H34.0001C32.8961 88.9994 32.0001 89.8954 32.0001 90.9994C32.0001 92.1034 32.8961 92.9994 34.0001 92.9994H56.0001C57.1041 92.9994 58.0001 92.1034 58.0001 90.9994C58.0001 89.8954 57.1041 88.9994 56.0001 88.9994Z" fill="white"/>
</svg>
