<svg width="100" height="99" viewBox="0 0 100 99" fill="none" xmlns="http://www.w3.org/2000/svg">
<g opacity="0.5">
<mask id="mask0" mask-type="alpha" maskUnits="userSpaceOnUse" x="0" y="0" width="50" height="99">
<path fill-rule="evenodd" clip-rule="evenodd" d="M0 0.602591H49.7089V98.6729H0V0.602591Z" fill="white"/>
</mask>
<g mask="url(#mask0)">
<path fill-rule="evenodd" clip-rule="evenodd" d="M31.9263 68.767C27.2552 63.8291 24.9215 57.4508 24.9215 49.6375C24.9215 41.8243 27.2552 35.4484 31.9263 30.5086C36.6854 25.4803 42.6131 22.9652 49.7089 22.9652V0.602591C35.4287 0.602591 23.5745 5.36404 14.1444 14.8821C4.71427 24.402 -0.000183105 35.9875 -0.000183105 49.6375C-0.000183105 63.2893 4.71427 74.8749 14.1444 84.3936C23.5745 93.9134 35.4287 98.6731 49.7089 98.6731V76.3104C42.6131 76.3104 36.6854 73.7978 31.9263 68.767Z" fill="white"/>
</g>
</g>
<mask id="mask1" mask-type="alpha" maskUnits="userSpaceOnUse" x="49" y="0" width="51" height="99">
<path fill-rule="evenodd" clip-rule="evenodd" d="M49.7083 0.60253H99.4169V98.6729H49.7083V0.60253Z" fill="white"/>
</mask>
<g mask="url(#mask1)">
<path fill-rule="evenodd" clip-rule="evenodd" d="M99.4174 49.6375C99.4174 35.9881 94.7029 24.4025 85.2728 14.882C75.8426 5.36398 63.9878 0.60253 49.7083 0.60253V22.9652C56.7131 22.9652 62.5945 25.4802 67.3559 30.5086C72.1149 35.5393 74.4957 41.9146 74.4957 49.6375C74.4957 57.3628 72.1149 63.7381 67.3559 68.767C62.5945 73.7977 56.7131 76.3104 49.7083 76.3104V98.673C63.9878 98.673 75.8426 93.9134 85.2728 84.3935C94.7029 74.8754 99.4174 63.2893 99.4174 49.6375Z" fill="#F91155"/>
</g>
</svg>
